<svg xmlns="http://www.w3.org/2000/svg" viewBox="0 0 512 512" role="img" aria-label="SkyTrain rolling stock icon">
  <defs>
    <linearGradient id="bg" x1="0" y1="0" x2="1" y2="1">
      <stop offset="0%" stop-color="#0B2B5B"/>
      <stop offset="100%" stop-color="#123D83"/>
    </linearGradient>
    <linearGradient id="visor" x1="0" y1="0" x2="0" y2="1">
      <stop offset="0%" stop-color="#1B1F2A"/>
      <stop offset="100%" stop-color="#2B3142"/>
    </linearGradient>
    <linearGradient id="metal" x1="0" y1="0" x2="1" y2="1">
      <stop offset="0%" stop-color="#E9EEF6"/>
      <stop offset="100%" stop-color="#CAD5E6"/>
    </linearGradient>
    <style>
      .stroke{stroke:#0A1730;stroke-width:14;stroke-linecap:round;stroke-linejoin:round}
    </style>
  </defs>

  <!-- Rounded, maskable-safe background (12.5% padding) -->
  <rect x="32" y="32" width="448" height="448" rx="88" fill="url(#bg)"/>

  <!-- Tracks -->
  <g opacity=".9" transform="translate(0,36)">
    <rect x="96" y="392" width="320" height="20" rx="6" fill="#E3E8F2"/>
    <rect x="72"  y="360" width="368" height="18" rx="5" fill="#C9D2E4"/>
    <!-- Sleepers -->
    <g fill="#B1BDD4">
      <rect x="96" y="360" width="36" height="18" rx="3"/>
      <rect x="160" y="360" width="36" height="18" rx="3"/>
      <rect x="224" y="360" width="36" height="18" rx="3"/>
      <rect x="288" y="360" width="36" height="18" rx="3"/>
      <rect x="352" y="360" width="36" height="18" rx="3"/>
      <rect x="416" y="360" width="24" height="18" rx="3"/>
    </g>
  </g>

  <!-- Train front -->
  <g transform="translate(96,92)">
    <!-- Car body -->
    <rect x="16" y="32" width="288" height="224" rx="36" fill="url(#metal)" class="stroke"/>
    <!-- Visor / windscreen -->
    <rect x="40" y="56" width="240" height="108" rx="24" fill="url(#visor)"/>
    <!-- Yellow belt (SkyTrain accent) -->
    <rect x="16" y="176" width="288" height="20" rx="10" fill="#F6C20E"/>

    <!-- Headlights -->
    <circle cx="72"  cy="218" r="16" fill="#FFFFFF" class="stroke"/>
    <circle cx="248" cy="218" r="16" fill="#FFFFFF" class="stroke"/>

    <!-- Bogies hint -->
    <rect x="56"  y="260" width="56" height="20" rx="8" fill="#8FA3BD"/>
    <rect x="208" y="260" width="56" height="20" rx="8" fill="#8FA3BD"/>

    <!-- “Consist dots” to imply multiple cars / sets -->
    <g transform="translate(332,70)">
      <circle cx="0"   cy="0"  r="6" fill="#E9EEF6"/>
      <circle cx="0"   cy="18" r="6" fill="#E9EEF6" opacity=".85"/>
      <circle cx="0"   cy="36" r="6" fill="#E9EEF6" opacity=".7"/>
    </g>
  </g>

  <!-- Subtle top highlight -->
  <path d="M64 128c0-40 28-72 64-72h256c36 0 64 32 64 72v0" fill="#FFFFFF" opacity=".06"/>
</svg>
